<svg width="424.4px" height="63.199999999999996px" xmlns="http://www.w3.org/2000/svg" viewBox="37.80000000000001 43.400000000000006 424.4 63.199999999999996" style="background: #888;" preserveAspectRatio="xMidYMid"><defs><filter id="editing-extrude-glow"><feFlood flood-color="" result="flood-1"></feFlood><feMorphology operator="erode" radius="1" in="SourceAlpha" result="erode"></feMorphology><feComposite operator="in" in="flood-1" in2="erode" result="comp1"></feComposite><feConvolveMatrix order="0,0" divisor="1" in="comp1" result="convolve" kernelMatrix=""></feConvolveMatrix><feOffset dx="0" dy="0" in="convolve" result="extrude"></feOffset><feComposite operator="in" in="flood-1" in2="extrude" result="comp-extrude"></feComposite><feFlood flood-color="" result="flood-2"></feFlood><feComposite operator="in" in="flood-2" in2="SourceAlpha" result="comp2"></feComposite><feMorphology operator="dilate" radius="1" in="comp2" result="dilate"></feMorphology><feOffset dx="0" dy="0" in="dilate" result="offset"></feOffset><feGaussianBlur in="offset" stdDeviation="5.8" result="blur"></feGaussianBlur><feComponentTransfer in="blur" result="shadow"><feFuncA type="linear" slope="0.8" intercept="-0.2"></feFuncA></feComponentTransfer><feMerge><feMergeNode in="shadow"></feMergeNode><feMergeNode in="comp-extrude"></feMergeNode><feMergeNode in="SourceGraphic"></feMergeNode></feMerge></filter></defs><g filter="url(#editing-extrude-glow)"><g transform="translate(101.22498202323914, 86.22000122070312)"><path d="M8.71-16.80L8.71-16.80Q11.88-16.80 13.92-15.52L13.92-15.52L13.92-15.52Q15.96-14.23 16.01-11.71L16.01-11.71L16.01-11.42L11.04-11.42L11.04-11.52L11.04-11.52Q11.04-12.24 10.51-12.72L10.51-12.72L10.51-12.72Q9.98-13.20 8.90-13.20L8.90-13.20L8.90-13.20Q7.85-13.20 7.28-12.89L7.28-12.89L7.28-12.89Q6.72-12.58 6.72-12.12L6.72-12.12L6.72-12.12Q6.72-11.47 7.49-11.16L7.49-11.16L7.49-11.16Q8.26-10.85 9.96-10.51L9.96-10.51L9.96-10.51Q11.95-10.10 13.24-9.66L13.24-9.66L13.24-9.66Q14.52-9.22 15.48-8.21L15.48-8.21L15.48-8.21Q16.44-7.20 16.46-5.47L16.46-5.47L16.46-5.47Q16.46-2.54 14.48-1.13L14.48-1.13L14.48-1.13Q12.50 0.29 9.19 0.29L9.19 0.29L9.19 0.29Q5.33 0.29 3.18-1.01L3.18-1.01L3.18-1.01Q1.03-2.30 1.03-5.59L1.03-5.59L6.05-5.59L6.05-5.59Q6.05-4.34 6.70-3.92L6.70-3.92L6.70-3.92Q7.34-3.50 8.71-3.50L8.71-3.50L8.71-3.50Q9.72-3.50 10.38-3.72L10.38-3.72L10.38-3.72Q11.04-3.94 11.04-4.61L11.04-4.61L11.04-4.61Q11.04-5.21 10.31-5.51L10.31-5.51L10.31-5.51Q9.58-5.81 7.92-6.14L7.92-6.14L7.92-6.14Q5.90-6.58 4.58-7.04L4.58-7.04L4.58-7.04Q3.26-7.51 2.28-8.59L2.28-8.59L2.28-8.59Q1.30-9.67 1.30-11.52L1.30-11.52L1.30-11.52Q1.30-14.23 3.40-15.52L3.40-15.52L3.40-15.52Q5.50-16.80 8.71-16.80L8.71-16.80ZM25.03-12.96L25.03-12.96Q27.94-12.96 29.76-11.99L29.76-11.99L29.76-11.99Q31.58-11.02 31.58-8.83L31.58-8.83L31.58-3.89L31.58-3.89Q31.58-3.48 31.78-3.22L31.78-3.22L31.78-3.22Q31.97-2.95 32.35-2.95L32.35-2.95L33.22-2.95L33.22-0.19L33.22-0.19Q33.14-0.14 32.84-0.04L32.84-0.04L32.84-0.04Q32.54 0.07 31.99 0.18L31.99 0.18L31.99 0.18Q31.44 0.29 30.72 0.29L30.72 0.29L30.72 0.29Q29.33 0.29 28.43-0.13L28.43-0.13L28.43-0.13Q27.53-0.55 27.19-1.30L27.19-1.30L27.19-1.30Q26.28-0.58 25.15-0.14L25.15-0.14L25.15-0.14Q24.02 0.29 22.51 0.29L22.51 0.29L22.51 0.29Q18.05 0.29 18.05-3.26L18.05-3.26L18.05-3.26Q18.05-5.11 19.04-6.08L19.04-6.08L19.04-6.08Q20.04-7.06 21.91-7.42L21.91-7.42L21.91-7.42Q23.78-7.78 26.81-7.78L26.81-7.78L26.81-8.40L26.81-8.40Q26.81-9.14 26.29-9.53L26.29-9.53L26.29-9.53Q25.78-9.91 24.96-9.91L24.96-9.91L24.96-9.91Q24.22-9.91 23.68-9.65L23.68-9.65L23.68-9.65Q23.14-9.38 23.14-8.81L23.14-8.81L23.14-8.71L18.43-8.71L18.43-8.71Q18.41-8.83 18.41-9.05L18.41-9.05L18.41-9.05Q18.41-10.85 20.12-11.90L20.12-11.90L20.12-11.90Q21.84-12.96 25.03-12.96L25.03-12.96ZM26.81-5.52L26.81-5.52Q24.77-5.52 23.80-5.08L23.80-5.08L23.80-5.08Q22.82-4.63 22.82-3.89L22.82-3.89L22.82-3.89Q22.82-2.69 24.46-2.69L24.46-2.69L24.46-2.69Q25.39-2.69 26.10-3.19L26.10-3.19L26.10-3.19Q26.81-3.70 26.81-4.44L26.81-4.44L26.81-5.52ZM51.60-12.96L51.60-12.96Q53.76-12.96 54.84-11.72L54.84-11.72L54.84-11.72Q55.92-10.49 55.92-8.21L55.92-8.21L55.92 0L51.14 0L51.14-7.63L51.14-7.63Q51.14-8.45 50.75-8.94L50.75-8.94L50.75-8.94Q50.35-9.43 49.63-9.43L49.63-9.43L49.63-9.43Q48.79-9.43 48.26-8.86L48.26-8.86L48.26-8.86Q47.74-8.28 47.74-7.44L47.74-7.44L47.74 0L42.96 0L42.96-7.63L42.96-7.63Q42.96-8.45 42.56-8.94L42.56-8.94L42.56-8.94Q42.17-9.43 41.45-9.43L41.45-9.43L41.45-9.43Q40.61-9.43 40.08-8.86L40.08-8.86L40.08-8.86Q39.55-8.28 39.55-7.44L39.55-7.44L39.55 0L34.78 0L34.78-12.67L38.69-12.67L39-10.78L39-10.78Q39.72-11.78 40.91-12.37L40.91-12.37L40.91-12.37Q42.10-12.96 43.42-12.96L43.42-12.96L43.42-12.96Q46.27-12.96 47.26-10.78L47.26-10.78L47.26-10.78Q48-11.78 49.16-12.37L49.16-12.37L49.16-12.37Q50.33-12.96 51.60-12.96L51.60-12.96ZM65.04-12.96L65.04-12.96Q67.94-12.96 69.77-11.99L69.77-11.99L69.77-11.99Q71.59-11.02 71.59-8.83L71.59-8.83L71.59-3.89L71.59-3.89Q71.59-3.48 71.78-3.22L71.78-3.22L71.78-3.22Q71.98-2.95 72.36-2.95L72.36-2.95L73.22-2.95L73.22-0.19L73.22-0.19Q73.15-0.14 72.85-0.04L72.85-0.04L72.85-0.04Q72.55 0.07 72 0.18L72 0.18L72 0.18Q71.45 0.29 70.73 0.29L70.73 0.29L70.73 0.29Q69.34 0.29 68.44-0.13L68.44-0.13L68.44-0.13Q67.54-0.55 67.20-1.30L67.20-1.30L67.20-1.30Q66.29-0.58 65.16-0.14L65.16-0.14L65.16-0.14Q64.03 0.29 62.52 0.29L62.52 0.29L62.52 0.29Q58.06 0.29 58.06-3.26L58.06-3.26L58.06-3.26Q58.06-5.11 59.05-6.08L59.05-6.08L59.05-6.08Q60.05-7.06 61.92-7.42L61.92-7.42L61.92-7.42Q63.79-7.78 66.82-7.78L66.82-7.78L66.82-8.40L66.82-8.40Q66.82-9.14 66.30-9.53L66.30-9.53L66.30-9.53Q65.78-9.91 64.97-9.91L64.97-9.91L64.97-9.91Q64.22-9.91 63.68-9.65L63.68-9.65L63.68-9.65Q63.14-9.38 63.14-8.81L63.14-8.81L63.14-8.71L58.44-8.71L58.44-8.71Q58.42-8.83 58.42-9.05L58.42-9.05L58.42-9.05Q58.42-10.85 60.13-11.90L60.13-11.90L60.13-11.90Q61.85-12.96 65.04-12.96L65.04-12.96ZM66.82-5.52L66.82-5.52Q64.78-5.52 63.80-5.08L63.80-5.08L63.80-5.08Q62.83-4.63 62.83-3.89L62.83-3.89L62.83-3.89Q62.83-2.69 64.46-2.69L64.46-2.69L64.46-2.69Q65.40-2.69 66.11-3.19L66.11-3.19L66.11-3.19Q66.82-3.70 66.82-4.44L66.82-4.44L66.82-5.52ZM80.81-12.96L80.81-12.96Q83.35-12.96 85.12-11.96L85.12-11.96L85.12-11.96Q86.88-10.97 86.88-8.88L86.88-8.88L82.44-8.88L82.44-8.88Q82.44-9.58 81.82-9.86L81.82-9.86L81.82-9.86Q81.38-10.10 80.74-10.10L80.74-10.10L80.74-10.10Q79.01-10.10 79.01-9.29L79.01-9.29L79.01-9.29Q79.01-8.83 79.61-8.64L79.61-8.64L79.61-8.64Q80.21-8.45 81.58-8.23L81.58-8.23L81.58-8.23Q83.26-7.99 84.38-7.67L84.38-7.67L84.38-7.67Q85.51-7.34 86.35-6.52L86.35-6.52L86.35-6.52Q87.19-5.69 87.19-4.20L87.19-4.20L87.19-4.20Q87.19-1.78 85.38-0.74L85.38-0.74L85.38-0.74Q83.57 0.29 80.64 0.29L80.64 0.29L80.64 0.29Q78.96 0.29 77.47-0.18L77.47-0.18L77.47-0.18Q75.98-0.65 75.05-1.63L75.05-1.63L75.05-1.63Q74.11-2.62 74.11-4.13L74.11-4.13L78.55-4.13L78.55-4.03L78.55-4.03Q78.58-3.22 79.24-2.89L79.24-2.89L79.24-2.89Q79.90-2.57 80.64-2.57L80.64-2.57L80.64-2.57Q82.63-2.57 82.63-3.50L82.63-3.50L82.63-3.50Q82.63-3.98 82.01-4.20L82.01-4.20L82.01-4.20Q81.38-4.42 79.97-4.66L79.97-4.66L79.97-4.66Q78.26-4.94 77.17-5.28L77.17-5.28L77.17-5.28Q76.08-5.62 75.26-6.42L75.26-6.42L75.26-6.42Q74.45-7.22 74.45-8.66L74.45-8.66L74.45-8.66Q74.45-10.99 76.21-11.98L76.21-11.98L76.21-11.98Q77.98-12.96 80.81-12.96L80.81-12.96ZM104.71-16.80L104.71-16.80Q107.88-16.80 109.92-15.52L109.92-15.52L109.92-15.52Q111.96-14.23 112.01-11.71L112.01-11.71L112.01-11.42L107.04-11.42L107.04-11.52L107.04-11.52Q107.04-12.24 106.51-12.72L106.51-12.72L106.51-12.72Q105.98-13.20 104.90-13.20L104.90-13.20L104.90-13.20Q103.85-13.20 103.28-12.89L103.28-12.89L103.28-12.89Q102.72-12.58 102.72-12.12L102.72-12.12L102.72-12.12Q102.72-11.47 103.49-11.16L103.49-11.16L103.49-11.16Q104.26-10.85 105.96-10.51L105.96-10.51L105.96-10.51Q107.95-10.10 109.24-9.66L109.24-9.66L109.24-9.66Q110.52-9.22 111.48-8.21L111.48-8.21L111.48-8.21Q112.44-7.20 112.46-5.47L112.46-5.47L112.46-5.47Q112.46-2.54 110.48-1.13L110.48-1.13L110.48-1.13Q108.50 0.29 105.19 0.29L105.19 0.29L105.19 0.29Q101.33 0.29 99.18-1.01L99.18-1.01L99.18-1.01Q97.03-2.30 97.03-5.59L97.03-5.59L102.05-5.59L102.05-5.59Q102.05-4.34 102.70-3.92L102.70-3.92L102.70-3.92Q103.34-3.50 104.71-3.50L104.71-3.50L104.71-3.50Q105.72-3.50 106.38-3.72L106.38-3.72L106.38-3.72Q107.04-3.94 107.04-4.61L107.04-4.61L107.04-4.61Q107.04-5.21 106.31-5.51L106.31-5.51L106.31-5.51Q105.58-5.81 103.92-6.14L103.92-6.14L103.92-6.14Q101.90-6.58 100.58-7.04L100.58-7.04L100.58-7.04Q99.26-7.51 98.28-8.59L98.28-8.59L98.28-8.59Q97.30-9.67 97.30-11.52L97.30-11.52L97.30-11.52Q97.30-14.23 99.40-15.52L99.40-15.52L99.40-15.52Q101.50-16.80 104.71-16.80L104.71-16.80ZM123.12-12.96L123.12-12.96Q125.69-12.96 127.08-11.28L127.08-11.28L127.08-11.28Q128.47-9.60 128.47-6.31L128.47-6.31L128.47-6.31Q128.47-3.05 127.08-1.38L127.08-1.38L127.08-1.38Q125.69 0.29 123.12 0.29L123.12 0.29L123.12 0.29Q120.91 0.29 119.57-1.15L119.57-1.15L119.57 4.73L114.79 4.73L114.79-12.67L118.68-12.67L119.09-10.87L119.09-10.87Q120.48-12.96 123.12-12.96L123.12-12.96ZM121.63-9.43L121.63-9.43Q120.58-9.43 120.05-8.69L120.05-8.69L120.05-8.69Q119.52-7.94 119.52-6.74L119.52-6.74L119.52-5.95L119.52-5.95Q119.52-4.75 120.05-4.00L120.05-4.00L120.05-4.00Q120.58-3.24 121.63-3.24L121.63-3.24L121.63-3.24Q123.70-3.24 123.70-5.71L123.70-5.71L123.70-6.98L123.70-6.98Q123.70-9.43 121.63-9.43L121.63-9.43ZM137.33-12.96L137.33-12.96Q140.66-12.96 142.57-11.27L142.57-11.27L142.57-11.27Q144.48-9.58 144.48-6.34L144.48-6.34L144.48-6.34Q144.48-3.10 142.57-1.40L142.57-1.40L142.57-1.40Q140.66 0.29 137.33 0.29L137.33 0.29L137.33 0.29Q133.99 0.29 132.10-1.39L132.10-1.39L132.10-1.39Q130.20-3.07 130.20-6.34L130.20-6.34L130.20-6.34Q130.20-9.60 132.10-11.28L132.10-11.28L132.10-11.28Q133.99-12.96 137.33-12.96L137.33-12.96ZM137.33-9.72L137.33-9.72Q134.98-9.72 134.98-7.01L134.98-7.01L134.98-5.64L134.98-5.64Q134.98-2.95 137.33-2.95L137.33-2.95L137.33-2.95Q139.70-2.95 139.70-5.64L139.70-5.64L139.70-7.01L139.70-7.01Q139.70-9.72 137.33-9.72L137.33-9.72ZM154.49-12.98L154.49-12.98Q155.04-12.98 155.47-12.85L155.47-12.85L155.47-12.85Q155.90-12.72 155.90-12.70L155.90-12.70L155.90-8.69L154.37-8.69L154.37-8.69Q152.88-8.69 152.22-7.92L152.22-7.92L152.22-7.92Q151.56-7.15 151.56-5.64L151.56-5.64L151.56 0L146.78 0L146.78-12.67L150.70-12.67L151.01-10.75L151.01-10.75Q151.44-11.86 152.38-12.42L152.38-12.42L152.38-12.42Q153.31-12.98 154.49-12.98L154.49-12.98ZM163.20-12.67L165.89-12.67L165.89-9.43L163.20-9.43L163.20-4.61L163.20-4.61Q163.20-3.74 163.49-3.35L163.49-3.35L163.49-3.35Q163.78-2.95 164.54-2.95L164.54-2.95L165.89-2.95L165.89-0.14L165.89-0.14Q165.31 0.05 164.40 0.17L164.40 0.17L164.40 0.17Q163.49 0.29 162.82 0.29L162.82 0.29L162.82 0.29Q160.70 0.29 159.56-0.48L159.56-0.48L159.56-0.48Q158.42-1.25 158.42-3.10L158.42-3.10L158.42-9.43L156.65-9.43L156.65-12.67L158.62-12.67L159.65-16.51L163.20-16.51L163.20-12.67ZM173.04-14.16L168.26-14.16L168.26-17.40L173.04-17.40L173.04-14.16ZM173.04 0L168.26 0L168.26-12.67L173.04-12.67L173.04 0ZM184.82-12.96L184.82-12.96Q187.03-12.96 188.14-11.74L188.14-11.74L188.14-11.74Q189.24-10.51 189.24-8.21L189.24-8.21L189.24 0L184.46 0L184.46-7.63L184.46-7.63Q184.46-8.45 184.04-8.94L184.04-8.94L184.04-8.94Q183.62-9.43 182.86-9.43L182.86-9.43L182.86-9.43Q181.97-9.43 181.42-8.86L181.42-8.86L181.42-8.86Q180.86-8.28 180.86-7.44L180.86-7.44L180.86 0L176.09 0L176.09-12.67L180.00-12.67L180.31-10.75L180.31-10.75Q181.06-11.76 182.27-12.36L182.27-12.36L182.27-12.36Q183.48-12.96 184.82-12.96L184.82-12.96ZM206.35-15.05L206.35-15.05Q206.35-13.58 205.62-12.79L205.62-12.79L205.62-12.79Q204.89-12 203.42-11.62L203.42-11.62L203.42-11.62Q204.12-11.09 204.52-10.38L204.52-10.38L204.52-10.38Q204.91-9.67 204.91-8.88L204.91-8.88L204.91-8.88Q204.91-6.86 203.39-5.83L203.39-5.83L203.39-5.83Q201.86-4.80 199.58-4.80L199.58-4.80L197.76-4.80L197.76-4.80Q196.25-4.80 196.25-4.10L196.25-4.10L196.25-4.10Q196.25-3.77 196.58-3.56L196.58-3.56L196.58-3.56Q196.92-3.36 197.76-3.36L197.76-3.36L202.08-3.36L202.08-3.36Q204.19-3.36 205.27-2.26L205.27-2.26L205.27-2.26Q206.35-1.15 206.35 0.70L206.35 0.70L206.35 0.70Q206.35 2.06 205.63 3.05L205.63 3.05L205.63 3.05Q204.91 4.03 203.69 4.54L203.69 4.54L203.69 4.54Q202.46 5.04 201.02 5.04L201.02 5.04L193.97 5.04L193.97 5.04Q193.10 5.04 192.37 4.63L192.37 4.63L192.37 4.63Q191.64 4.22 191.21 3.52L191.21 3.52L191.21 3.52Q190.78 2.81 190.78 1.94L190.78 1.94L190.78 1.94Q190.78 1.01 191.35 0.25L191.35 0.25L191.35 0.25Q191.93-0.50 192.79-0.89L192.79-0.89L192.79-0.89Q192.22-1.30 191.88-1.87L191.88-1.87L191.88-1.87Q191.54-2.45 191.54-3.12L191.54-3.12L191.54-3.12Q191.54-4.06 192.24-4.81L192.24-4.81L192.24-4.81Q192.94-5.57 193.97-5.83L193.97-5.83L193.97-5.83Q193.03-6.43 192.48-7.21L192.48-7.21L192.48-7.21Q191.93-7.99 191.93-8.86L191.93-8.86L191.93-8.86Q191.93-11.06 193.72-12.01L193.72-12.01L193.72-12.01Q195.50-12.96 198.46-12.96L198.46-12.96L198.46-12.96Q199.75-12.96 200.54-12.82L200.54-12.82L200.54-12.82Q201.72-13.56 202.07-14.17L202.07-14.17L202.07-14.17Q202.42-14.78 202.42-15.05L202.42-15.05L206.35-15.05ZM198.41-10.46L198.41-10.46Q197.62-10.46 197.11-10.06L197.11-10.06L197.11-10.06Q196.61-9.65 196.61-8.88L196.61-8.88L196.61-8.88Q196.61-8.09 197.08-7.69L197.08-7.69L197.08-7.69Q197.54-7.30 198.41-7.30L198.41-7.30L198.41-7.30Q199.27-7.30 199.76-7.69L199.76-7.69L199.76-7.69Q200.26-8.09 200.26-8.88L200.26-8.88L200.26-8.88Q200.26-9.67 199.76-10.07L199.76-10.07L199.76-10.07Q199.27-10.46 198.41-10.46L198.41-10.46ZM196.56 0L196.56 0Q196.01 0 195.66 0.30L195.66 0.30L195.66 0.30Q195.31 0.60 195.31 1.15L195.31 1.15L195.31 1.15Q195.31 1.70 195.67 2.04L195.67 2.04L195.67 2.04Q196.03 2.38 196.56 2.38L196.56 2.38L200.30 2.38L200.30 2.38Q200.83 2.38 201.20 2.05L201.20 2.05L201.20 2.05Q201.58 1.73 201.58 1.18L201.58 1.18L201.58 1.18Q201.58 0.62 201.22 0.31L201.22 0.31L201.22 0.31Q200.86 0 200.30 0L200.30 0L196.56 0ZM224.74-16.80L224.74-16.80Q227.11-16.80 229.01-16.08L229.01-16.08L229.01-16.08Q230.90-15.36 232.02-13.96L232.02-13.96L232.02-13.96Q233.14-12.55 233.14-10.54L233.14-10.54L228.07-10.54L228.07-10.54Q228.07-11.57 227.16-12.20L227.16-12.20L227.16-12.20Q226.25-12.84 224.95-12.84L224.95-12.84L224.95-12.84Q223.08-12.84 222.12-11.84L222.12-11.84L222.12-11.84Q221.16-10.85 221.16-9.02L221.16-9.02L221.16-7.49L221.16-7.49Q221.16-5.66 222.12-4.67L222.12-4.67L222.12-4.67Q223.08-3.67 224.95-3.67L224.95-3.67L224.95-3.67Q226.25-3.67 227.16-4.28L227.16-4.28L227.16-4.28Q228.07-4.90 228.07-5.86L228.07-5.86L224.33-5.86L224.33-9.22L233.14-9.22L233.14 0L230.40 0L229.87-1.63L229.87-1.63Q227.62 0.29 223.97 0.29L223.97 0.29L223.97 0.29Q219.86 0.29 217.80-1.86L217.80-1.86L217.80-1.86Q215.74-4.01 215.74-8.26L215.74-8.26L215.74-8.26Q215.74-12.46 218.08-14.63L218.08-14.63L218.08-14.63Q220.42-16.80 224.74-16.80L224.74-16.80ZM242.64-12.96L242.64-12.96Q245.98-12.96 247.88-11.27L247.88-11.27L247.88-11.27Q249.79-9.58 249.79-6.34L249.79-6.34L249.79-6.34Q249.79-3.10 247.88-1.40L247.88-1.40L247.88-1.40Q245.98 0.29 242.64 0.29L242.64 0.29L242.64 0.29Q239.30 0.29 237.41-1.39L237.41-1.39L237.41-1.39Q235.51-3.07 235.51-6.34L235.51-6.34L235.51-6.34Q235.51-9.60 237.41-11.28L237.41-11.28L237.41-11.28Q239.30-12.96 242.64-12.96L242.64-12.96ZM242.64-9.72L242.64-9.72Q240.29-9.72 240.29-7.01L240.29-7.01L240.29-5.64L240.29-5.64Q240.29-2.95 242.64-2.95L242.64-2.95L242.64-2.95Q245.02-2.95 245.02-5.64L245.02-5.64L245.02-7.01L245.02-7.01Q245.02-9.72 242.64-9.72L242.64-9.72ZM258.65-12.96L258.65-12.96Q261.98-12.96 263.89-11.27L263.89-11.27L263.89-11.27Q265.80-9.58 265.80-6.34L265.80-6.34L265.80-6.34Q265.80-3.10 263.89-1.40L263.89-1.40L263.89-1.40Q261.98 0.29 258.65 0.29L258.65 0.29L258.65 0.29Q255.31 0.29 253.42-1.39L253.42-1.39L253.42-1.39Q251.52-3.07 251.52-6.34L251.52-6.34L251.52-6.34Q251.52-9.60 253.42-11.28L253.42-11.28L253.42-11.28Q255.31-12.96 258.65-12.96L258.65-12.96ZM258.65-9.72L258.65-9.72Q256.30-9.72 256.30-7.01L256.30-7.01L256.30-5.64L256.30-5.64Q256.30-2.95 258.65-2.95L258.65-2.95L258.65-2.95Q261.02-2.95 261.02-5.64L261.02-5.64L261.02-7.01L261.02-7.01Q261.02-9.72 258.65-9.72L258.65-9.72ZM281.21 0L277.32 0L276.91-1.80L276.91-1.80Q275.52 0.29 272.88 0.29L272.88 0.29L272.88 0.29Q270.31 0.29 268.92-1.39L268.92-1.39L268.92-1.39Q267.53-3.07 267.53-6.36L267.53-6.36L267.53-6.36Q267.53-9.62 268.92-11.29L268.92-11.29L268.92-11.29Q270.31-12.96 272.88-12.96L272.88-12.96L272.88-12.96Q275.06-12.96 276.43-11.50L276.43-11.50L276.43-17.40L281.21-17.40L281.21 0ZM274.37-9.43L274.37-9.43Q272.30-9.43 272.30-6.96L272.30-6.96L272.30-5.69L272.30-5.69Q272.30-3.24 274.37-3.24L274.37-3.24L274.37-3.24Q275.42-3.24 275.95-3.98L275.95-3.98L275.95-3.98Q276.48-4.73 276.48-5.93L276.48-5.93L276.48-6.72L276.48-6.72Q276.48-7.92 275.95-8.68L275.95-8.68L275.95-8.68Q275.42-9.43 274.37-9.43L274.37-9.43ZM290.14-12.96L290.14-12.96Q292.68-12.96 294.44-11.96L294.44-11.96L294.44-11.96Q296.21-10.97 296.21-8.88L296.21-8.88L291.77-8.88L291.77-8.88Q291.77-9.58 291.14-9.86L291.14-9.86L291.14-9.86Q290.71-10.10 290.06-10.10L290.06-10.10L290.06-10.10Q288.34-10.10 288.34-9.29L288.34-9.29L288.34-9.29Q288.34-8.83 288.94-8.64L288.94-8.64L288.94-8.64Q289.54-8.45 290.90-8.23L290.90-8.23L290.90-8.23Q292.58-7.99 293.71-7.67L293.71-7.67L293.71-7.67Q294.84-7.34 295.68-6.52L295.68-6.52L295.68-6.52Q296.52-5.69 296.52-4.20L296.52-4.20L296.52-4.20Q296.52-1.78 294.71-0.74L294.71-0.74L294.71-0.74Q292.90 0.29 289.97 0.29L289.97 0.29L289.97 0.29Q288.29 0.29 286.80-0.18L286.80-0.18L286.80-0.18Q285.31-0.65 284.38-1.63L284.38-1.63L284.38-1.63Q283.44-2.62 283.44-4.13L283.44-4.13L287.88-4.13L287.88-4.03L287.88-4.03Q287.90-3.22 288.56-2.89L288.56-2.89L288.56-2.89Q289.22-2.57 289.97-2.57L289.97-2.57L289.97-2.57Q291.96-2.57 291.96-3.50L291.96-3.50L291.96-3.50Q291.96-3.98 291.34-4.20L291.34-4.20L291.34-4.20Q290.71-4.42 289.30-4.66L289.30-4.66L289.30-4.66Q287.59-4.94 286.50-5.28L286.50-5.28L286.50-5.28Q285.41-5.62 284.59-6.42L284.59-6.42L284.59-6.42Q283.78-7.22 283.78-8.66L283.78-8.66L283.78-8.66Q283.78-10.99 285.54-11.98L285.54-11.98L285.54-11.98Q287.30-12.96 290.14-12.96L290.14-12.96Z" fill=" hsl(5, 35%, 50%)"></path></g></g><style>text {
  font-size: 64px;
  font-family: Arial Black;
  dominant-baseline: central;
  text-anchor: middle;
}</style></svg>